<svg xmlns="http://www.w3.org/2000/svg" width="1em" height="1em" viewBox="0 0 15 15"><path fill="currentColor" d="M1.45 10.95a.5.5 0 0 1 .5.5v1.5h1.5a.5.5 0 1 1 0 1h-2a.5.5 0 0 1-.5-.5v-2a.5.5 0 0 1 .5-.5m7.5 2a.5.5 0 1 1 0 1h-3a.5.5 0 0 1 0-1zm4.5-2a.5.5 0 0 1 .5.5v2a.5.5 0 0 1-.5.5h-2a.5.5 0 1 1 0-1h1.499l.001-1.5a.5.5 0 0 1 .5-.5m-12-5.5a.5.5 0 0 1 .5.5v3a.5.5 0 0 1-1 0v-3a.5.5 0 0 1 .5-.5m12 0a.5.5 0 0 1 .5.5v3a.5.5 0 0 1-1 0v-3a.5.5 0 0 1 .5-.5m-10-4.5a.5.5 0 0 1 0 1h-1.5v1.5a.5.5 0 0 1-1 0v-2a.5.5 0 0 1 .5-.5zm9.999 0a.5.5 0 0 1 .501.5v2a.5.5 0 0 1-1 0v-1.5h-1.5a.5.5 0 1 1 0-1zm-4.5 0a.5.5 0 0 1 0 1H5.95a.5.5 0 0 1 0-1z"/></svg>