<svg xmlns="http://www.w3.org/2000/svg" xmlns:xlink="http://www.w3.org/1999/xlink" style="display:none">
    <symbol id="form" viewBox="8 8 116 116">
        <image href="/bundles/ibexaformbuilder/icons/ong.png" x="0" y="0" width="132" height="132"/>
    </symbol>
    <symbol id="input" viewBox="8 8 116 116">
        <image href="/bundles/ibexaformbuilder/icons/text-input.png" x="0" y="0" width="132" height="132"/>
    </symbol>
    <symbol id="textarea" viewBox="8 8 116 116">
        <image href="/bundles/ibexaformbuilder/icons/textarea.png" x="0" y="0" width="132" height="132"/>
    </symbol>
    <symbol id="select" viewBox="8 8 116 116">
        <image href="/bundles/ibexaformbuilder/icons/select.png" x="0" y="0" width="132" height="132"/>
    </symbol>
    <symbol id="option" viewBox="8 8 116 116">
        <image href="/bundles/ibexaformbuilder/icons/select.png" x="0" y="0" width="132" height="132"/>
    </symbol>
    <symbol id="fieldset" viewBox="8 8 116 116">
        <image href="/bundles/ibexaformbuilder/icons/checkbox-group.png" x="0" y="0" width="132" height="132"/>
    </symbol>
    <symbol id="horizontal-group" viewBox="0 0 24 24" fill="none">
        <path d="M12 3V21M7.8 3H16.2C17.8802 3 18.7202 3 19.362 3.32698C19.9265 3.6146 20.3854 4.07354 20.673 4.63803C21 5.27976 21 6.11984 21 7.8V16.2C21 17.8802 21 18.7202 20.673 19.362C20.3854 19.9265 19.9265 20.3854 19.362 20.673C18.7202 21 17.8802 21 16.2 21H7.8C6.11984 21 5.27976 21 4.63803 20.673C4.07354 20.3854 3.6146 19.9265 3.32698 19.362C3 18.7202 3 17.8802 3 16.2V7.8C3 6.11984 3 5.27976 3.32698 4.63803C3.6146 4.07354 4.07354 3.6146 4.63803 3.32698C5.27976 3 6.11984 3 7.8 3Z" stroke="currentColor" stroke-width="2" stroke-linecap="round" stroke-linejoin="round"/>
    </symbol>
    <symbol id="button" viewBox="8 8 116 116">
        <image href="/bundles/ibexaformbuilder/icons/button.png" x="0" y="0" width="132" height="132"/>
    </symbol>
    <symbol id="choice" viewBox="8 8 116 116">
        <image href="/bundles/ibexaformbuilder/icons/checkbox-group.png" x="0" y="0" width="132" height="132"/>
    </symbol>
</svg>
