<svg xmlns="http://www.w3.org/2000/svg"
    xmlns:xlink="http://www.w3.org/1999/xlink">
    <symbol id="announcement" viewBox="0 0 22 22" fill="none"
        xmlns="http://www.w3.org/2000/svg">
        <path width="32" height="32" d="M17.5 14C19.433 14 21 11.0899 21 7.5C21 3.91015 19.433 1 17.5 1M17.5 14C15.567 14 14 11.0899 14 7.5C14 3.91015 15.567 1 17.5 1M17.5 14L4.44354 11.6261C3.51605 11.4575 3.05231 11.3731 2.67733 11.189C1.91447 10.8142 1.34636 10.1335 1.11414 9.31593C1 8.91405 1 8.4427 1 7.5C1 6.5573 1 6.08595 1.11414 5.68407C1.34636 4.86649 1.91447 4.18577 2.67733 3.81105C3.05231 3.62685 3.51605 3.54254 4.44354 3.3739L17.5 1M4 12L4.39386 17.514C4.43126 18.0376 4.44996 18.2995 4.56387 18.4979C4.66417 18.6726 4.81489 18.8129 4.99629 18.9005C5.20232 19 5.46481 19 5.98979 19H7.7722C8.37234 19 8.67242 19 8.89451 18.8803C9.08966 18.7751 9.24434 18.6081 9.33423 18.4055C9.43653 18.1749 9.41351 17.8757 9.36748 17.2773L9 12.5" stroke="black" stroke-width="2" stroke-linecap="round" stroke-linejoin="round" />
    </symbol>
    <symbol id="book" viewBox="0 0 22 24" fill="none">
        <path width="32" height="32" d="M12 21L11.8999 20.8499C11.2053 19.808 10.858 19.287 10.3991 18.9098C9.99286 18.5759 9.52476 18.3254 9.02161 18.1726C8.45325 18 7.82711 18 6.57482 18H5.2C4.07989 18 3.51984 18 3.09202 17.782C2.71569 17.5903 2.40973 17.2843 2.21799 16.908C2 16.4802 2 15.9201 2 14.8V6.2C2 5.07989 2 4.51984 2.21799 4.09202C2.40973 3.71569 2.71569 3.40973 3.09202 3.21799C3.51984 3 4.07989 3 5.2 3H5.6C7.84021 3 8.96031 3 9.81596 3.43597C10.5686 3.81947 11.1805 4.43139 11.564 5.18404C12 6.03968 12 7.15979 12 9.4M12 21V9.4M12 21L12.1001 20.8499C12.7947 19.808 13.142 19.287 13.6009 18.9098C14.0071 18.5759 14.4752 18.3254 14.9784 18.1726C15.5467 18 16.1729 18 17.4252 18H18.8C19.9201 18 20.4802 18 20.908 17.782C21.2843 17.5903 21.5903 17.2843 21.782 16.908C22 16.4802 22 15.9201 22 14.8V6.2C22 5.07989 22 4.51984 21.782 4.09202C21.5903 3.71569 21.2843 3.40973 20.908 3.21799C20.4802 3 19.9201 3 18.8 3H18.4C16.1598 3 15.0397 3 14.184 3.43597C13.4314 3.81947 12.8195 4.43139 12.436 5.18404C12 6.03968 12 7.15979 12 9.4" stroke="black" stroke-width="2" stroke-linecap="round" stroke-linejoin="round"/>
    </symbol>
    <symbol id="briefcase" viewBox="0 0 22 22" fill="none">
        <path width="32" height="32" d="M16 7C16 6.07003 16 5.60504 15.8978 5.22354C15.6204 4.18827 14.8117 3.37962 13.7765 3.10222C13.395 3 12.93 3 12 3C11.07 3 10.605 3 10.2235 3.10222C9.18827 3.37962 8.37962 4.18827 8.10222 5.22354C8 5.60504 8 6.07003 8 7M5.2 21H18.8C19.9201 21 20.4802 21 20.908 20.782C21.2843 20.5903 21.5903 20.2843 21.782 19.908C22 19.4802 22 18.9201 22 17.8V10.2C22 9.07989 22 8.51984 21.782 8.09202C21.5903 7.71569 21.2843 7.40973 20.908 7.21799C20.4802 7 19.9201 7 18.8 7H5.2C4.07989 7 3.51984 7 3.09202 7.21799C2.71569 7.40973 2.40973 7.71569 2.21799 8.09202C2 8.51984 2 9.07989 2 10.2V17.8C2 18.9201 2 19.4802 2.21799 19.908C2.40973 20.2843 2.71569 20.5903 3.09202 20.782C3.51984 21 4.0799 21 5.2 21Z" stroke="black" stroke-width="2" stroke-linecap="round" stroke-linejoin="round"/>
    </symbol>
    <symbol id="calendar" viewBox="0 0 22 22" fill="none">
        <path width="24" height="24" d="M21 8H3M16 2V5M8 2V5M7.8 22H16.2C17.8802 22 18.7202 22 19.362 21.673C19.9265 21.3854 20.3854 20.9265 20.673 20.362C21 19.7202 21 18.8802 21 17.2V8.8C21 7.11984 21 6.27976 20.673 5.63803C20.3854 5.07354 19.9265 4.6146 19.362 4.32698C18.7202 4 17.8802 4 16.2 4H7.8C6.11984 4 5.27976 4 4.63803 4.32698C4.07354 4.6146 3.6146 5.07354 3.32698 5.63803C3 6.27976 3 7.11984 3 8.8V17.2C3 18.8802 3 19.7202 3.32698 20.362C3.6146 20.9265 4.07354 21.3854 4.63803 21.673C5.27976 22 6.11984 22 7.8 22ZM11.9973 12.3306C11.1975 11.4216 9.8639 11.1771 8.86188 12.0094C7.85986 12.8418 7.71879 14.2335 8.50568 15.2179C9.077 15.9327 10.6593 17.3397 11.4833 18.0569C11.662 18.2124 11.7513 18.2902 11.856 18.321C11.9466 18.3477 12.0479 18.3477 12.1386 18.321C12.2432 18.2902 12.3325 18.2124 12.5112 18.0569C13.3353 17.3397 14.9175 15.9327 15.4888 15.2179C16.2757 14.2335 16.1519 12.8331 15.1326 12.0094C14.1134 11.1858 12.797 11.4216 11.9973 12.3306Z" stroke="black" stroke-width="2" stroke-linecap="round" stroke-linejoin="round"/>
    </symbol>
    <symbol id="certificate" viewBox="0 0 20 22" fill="none">
        <path width="20" height="22" d="M9 18.5H15M7 15H17M5 2H19C20.1046 2 21 2.99492 21 4.22222V19.7778C21 21.0051 20.1046 22 19 22H5C3.89543 22 3 21.0051 3 19.7778V4.22222C3 2.99492 3.89543 2 5 2ZM11.9976 6.21194C11.2978 5.4328 10.1309 5.22321 9.25414 5.93667C8.37738 6.65013 8.25394 7.84299 8.94247 8.6868C9.631 9.53061 11.9976 11.5 11.9976 11.5C11.9976 11.5 14.3642 9.53061 15.0527 8.6868C15.7413 7.84299 15.6329 6.64262 14.7411 5.93667C13.8492 5.23072 12.6974 5.4328 11.9976 6.21194Z" stroke="black" stroke-width="2" stroke-linecap="round" stroke-linejoin="round"/>
    </symbol>
    <symbol id="container" viewBox="0 0 20 22" fill="none">
        <path width="20" height="22" d="M18.5 6.27783L9.99997 11.0001M9.99997 11.0001L1.49997 6.27783M9.99997 11.0001L10 20.5001M19 15.0586V6.94153C19 6.59889 19 6.42757 18.9495 6.27477C18.9049 6.13959 18.8318 6.01551 18.7354 5.91082C18.6263 5.79248 18.4766 5.70928 18.177 5.54288L10.777 1.43177C10.4934 1.27421 10.3516 1.19543 10.2015 1.16454C10.0685 1.13721 9.93146 1.13721 9.79855 1.16454C9.64838 1.19543 9.50658 1.27421 9.22297 1.43177L1.82297 5.54288C1.52345 5.70928 1.37369 5.79248 1.26463 5.91082C1.16816 6.01551 1.09515 6.13959 1.05048 6.27477C1 6.42757 1 6.59889 1 6.94153V15.0586C1 15.4013 1 15.5726 1.05048 15.7254C1.09515 15.8606 1.16816 15.9847 1.26463 16.0893C1.37369 16.2077 1.52345 16.2909 1.82297 16.4573L9.22297 20.5684C9.50658 20.726 9.64838 20.8047 9.79855 20.8356C9.93146 20.863 10.0685 20.863 10.2015 20.8356C10.3516 20.8047 10.4934 20.726 10.777 20.5684L18.177 16.4573C18.4766 16.2909 18.6263 16.2077 18.7354 16.0893C18.8318 15.9847 18.9049 15.8606 18.9495 15.7254C19 15.5726 19 15.4013 19 15.0586Z" stroke="black" stroke-width="2" stroke-linecap="round" stroke-linejoin="round"/>
    </symbol>
    <symbol id="download" viewBox="0 0 22 22" fill="none">
        <path width="32" height="32" d="M21 15V16.2C21 17.8802 21 18.7202 20.673 19.362C20.3854 19.9265 19.9265 20.3854 19.362 20.673C18.7202 21 17.8802 21 16.2 21H7.8C6.11984 21 5.27976 21 4.63803 20.673C4.07354 20.3854 3.6146 19.9265 3.32698 19.362C3 18.7202 3 17.8802 3 16.2V15M17 10L12 15M12 15L7 10M12 15V3" stroke="black" stroke-width="2" stroke-linecap="round" stroke-linejoin="round"/>
    </symbol>
    <symbol id="file" viewBox="0 0 24 24" fill="none">
        <path width="24" height="24" d="M14 2.26946V6.4C14 6.96005 14 7.24008 14.109 7.45399C14.2049 7.64215 14.3578 7.79513 14.546 7.89101C14.7599 8 15.0399 8 15.6 8H19.7305M20 9.98822V17.2C20 18.8802 20 19.7202 19.673 20.362C19.3854 20.9265 18.9265 21.3854 18.362 21.673C17.7202 22 16.8802 22 15.2 22H8.8C7.11984 22 6.27976 22 5.63803 21.673C5.07354 21.3854 4.6146 20.9265 4.32698 20.362C4 19.7202 4 18.8802 4 17.2V6.8C4 5.11984 4 4.27976 4.32698 3.63803C4.6146 3.07354 5.07354 2.6146 5.63803 2.32698C6.27976 2 7.11984 2 8.8 2H12.0118C12.7455 2 13.1124 2 13.4577 2.08289C13.7638 2.15638 14.0564 2.27759 14.3249 2.44208C14.6276 2.6276 14.887 2.88703 15.4059 3.40589L18.5941 6.59411C19.113 7.11297 19.3724 7.3724 19.5579 7.67515C19.7224 7.94356 19.8436 8.2362 19.9171 8.5423C20 8.88757 20 9.25445 20 9.98822Z" stroke="black" stroke-width="2" stroke-linecap="round" stroke-linejoin="round"/>
    </symbol>
    <symbol id="file-text" viewBox="0 0 24 24" fill="none">
        <path width="24" height="24" d="M14 11H8M10 15H8M16 7H8M20 6.8V17.2C20 18.8802 20 19.7202 19.673 20.362C19.3854 20.9265 18.9265 21.3854 18.362 21.673C17.7202 22 16.8802 22 15.2 22H8.8C7.11984 22 6.27976 22 5.63803 21.673C5.07354 21.3854 4.6146 20.9265 4.32698 20.362C4 19.7202 4 18.8802 4 17.2V6.8C4 5.11984 4 4.27976 4.32698 3.63803C4.6146 3.07354 5.07354 2.6146 5.63803 2.32698C6.27976 2 7.11984 2 8.8 2H15.2C16.8802 2 17.7202 2 18.362 2.32698C18.9265 2.6146 19.3854 3.07354 19.673 3.63803C20 4.27976 20 5.11984 20 6.8Z" stroke="black" stroke-width="2" stroke-linecap="round" stroke-linejoin="round"/>
    </symbol>
    <symbol id="flash" viewBox="0 0 24 24" fill="none">
        <path width="24" height="24" d="M13 2L4.09344 12.6879C3.74463 13.1064 3.57023 13.3157 3.56756 13.4925C3.56524 13.6461 3.63372 13.7923 3.75324 13.8889C3.89073 14 4.16316 14 4.70802 14H12L11 22L19.9065 11.3121C20.2553 10.8936 20.4297 10.6843 20.4324 10.5075C20.4347 10.3539 20.3663 10.2077 20.2467 10.1111C20.1092 10 19.8368 10 19.292 10H12L13 2Z" stroke="black" stroke-width="2" stroke-linecap="round" stroke-linejoin="round"/>
    </symbol>
    <symbol id="flash-fill" viewBox="0 0 24 24" fill="black">
        <path width="24" height="24" d="M13 2L4.09344 12.6879C3.74463 13.1064 3.57023 13.3157 3.56756 13.4925C3.56524 13.6461 3.63372 13.7923 3.75324 13.8889C3.89073 14 4.16316 14 4.70802 14H12L11 22L19.9065 11.3121C20.2553 10.8936 20.4297 10.6843 20.4324 10.5075C20.4347 10.3539 20.3663 10.2077 20.2467 10.1111C20.1092 10 19.8368 10 19.292 10H12L13 2Z" stroke="black" stroke-width="2" stroke-linecap="round" stroke-linejoin="round"/>
    </symbol>
    <symbol id="footer" viewBox="0 0 24 24" fill="none">
        <path width="24" height="24" d="M17.5 17.6L6.5 17.6M7.8 3H16.2C17.8802 3 18.7202 3 19.362 3.32698C19.9265 3.6146 20.3854 4.07354 20.673 4.63803C21 5.27976 21 6.11984 21 7.8V16.2C21 17.8802 21 18.7202 20.673 19.362C20.3854 19.9265 19.9265 20.3854 19.362 20.673C18.7202 21 17.8802 21 16.2 21H7.8C6.11984 21 5.27976 21 4.63803 20.673C4.07354 20.3854 3.6146 19.9265 3.32698 19.362C3 18.7202 3 17.8802 3 16.2V7.8C3 6.11984 3 5.27976 3.32698 4.63803C3.6146 4.07354 4.07354 3.6146 4.63803 3.32698C5.27976 3 6.11984 3 7.8 3Z" stroke="black" stroke-width="2" stroke-linecap="round" stroke-linejoin="round"/>
    </symbol>
    <symbol id="folder" viewBox="0 0 24 24" fill="none">
        <path width="24" height="24" d="M13 7L11.8845 4.76892C11.5634 4.1268 11.4029 3.80573 11.1634 3.57116C10.9516 3.36373 10.6963 3.20597 10.4161 3.10931C10.0992 3 9.74021 3 9.02229 3H5.2C4.0799 3 3.51984 3 3.09202 3.21799C2.71569 3.40973 2.40973 3.71569 2.21799 4.09202C2 4.51984 2 5.0799 2 6.2V7M2 7H17.2C18.8802 7 19.7202 7 20.362 7.32698C20.9265 7.6146 21.3854 8.07354 21.673 8.63803C22 9.27976 22 10.1198 22 11.8V16.2C22 17.8802 22 18.7202 21.673 19.362C21.3854 19.9265 20.9265 20.3854 20.362 20.673C19.7202 21 18.8802 21 17.2 21H6.8C5.11984 21 4.27976 21 3.63803 20.673C3.07354 20.3854 2.6146 19.9265 2.32698 19.362C2 18.7202 2 17.8802 2 16.2V7Z" stroke="black" stroke-width="2" stroke-linecap="round" stroke-linejoin="round"/>
    </symbol>
    <symbol id="folder-code" viewBox="0 0 22 22" fill="none">
        <path width="32" height="32" d="M13 7L11.8845 4.76892C11.5634 4.1268 11.4029 3.80573 11.1634 3.57116C10.9516 3.36373 10.6963 3.20597 10.4161 3.10931C10.0992 3 9.74021 3 9.02229 3H5.2C4.0799 3 3.51984 3 3.09202 3.21799C2.71569 3.40973 2.40973 3.71569 2.21799 4.09202C2 4.51984 2 5.0799 2 6.2V7M2 7H17.2C18.8802 7 19.7202 7 20.362 7.32698C20.9265 7.6146 21.3854 8.07354 21.673 8.63803C22 9.27976 22 10.1198 22 11.8V16.2C22 17.8802 22 18.7202 21.673 19.362C21.3854 19.9265 20.9265 20.3854 20.362 20.673C19.7202 21 18.8802 21 17.2 21H6.8C5.11984 21 4.27976 21 3.63803 20.673C3.07354 20.3854 2.6146 19.9265 2.32698 19.362C2 18.7202 2 17.8802 2 16.2V7ZM14 16.5L16.5 14L14 11.5M10 11.5L7.5 14L10 16.5" stroke="black" stroke-width="2" stroke-linecap="round" stroke-linejoin="round"/>
    </symbol>
    <symbol id="glasses" viewBox="0 0 22 22" fill="none">
        <path width="32" height="32" d="M10 14.5347C11.2335 13.8218 12.7663 13.8218 13.9999 14.5347M2 15L2.70149 7.98511C2.72808 7.71915 2.74138 7.58617 2.76178 7.47208C3.00222 6.12702 4.1212 5.11436 5.48352 5.00894C5.59907 5 5.73271 5 6 5M22 15L21.2985 7.98511C21.2719 7.71916 21.2586 7.58617 21.2382 7.47208C20.9978 6.12702 19.8788 5.11436 18.5165 5.00894C18.4009 5 18.2673 5 18 5M8.82843 12.1716C10.3905 13.7337 10.3905 16.2663 8.82843 17.8284C7.26634 19.3905 4.73367 19.3905 3.17157 17.8284C1.60948 16.2663 1.60948 13.7337 3.17157 12.1716C4.73366 10.6095 7.26633 10.6095 8.82843 12.1716ZM20.8284 12.1716C22.3905 13.7337 22.3905 16.2663 20.8284 17.8284C19.2663 19.3905 16.7337 19.3905 15.1716 17.8284C13.6095 16.2663 13.6095 13.7337 15.1716 12.1716C16.7337 10.6095 19.2663 10.6095 20.8284 12.1716Z" stroke="black" stroke-width="2" stroke-linecap="round" stroke-linejoin="round"/>
    </symbol>
    <symbol id="graduation-hat" viewBox="0 0 24 24" fill="none">
        <path width="24" height="24" d="M17 14.5001V11.4945C17 11.315 17 11.2253 16.9727 11.146C16.9485 11.076 16.9091 11.0122 16.8572 10.9592C16.7986 10.8993 16.7183 10.8592 16.5578 10.779L12 8.50006M4 9.50006V16.3067C4 16.6786 4 16.8645 4.05802 17.0274C4.10931 17.1713 4.1929 17.3016 4.30238 17.4082C4.42622 17.5287 4.59527 17.6062 4.93335 17.7612L11.3334 20.6945C11.5786 20.8069 11.7012 20.8631 11.8289 20.8853C11.9421 20.9049 12.0579 20.9049 12.1711 20.8853C12.2988 20.8631 12.4214 20.8069 12.6666 20.6945L19.0666 17.7612C19.4047 17.6062 19.5738 17.5287 19.6976 17.4082C19.8071 17.3016 19.8907 17.1713 19.942 17.0274C20 16.8645 20 16.6786 20 16.3067V9.50006M2 8.50006L11.6422 3.67895C11.7734 3.61336 11.839 3.58056 11.9078 3.56766C11.9687 3.55622 12.0313 3.55622 12.0922 3.56766C12.161 3.58056 12.2266 3.61336 12.3578 3.67895L22 8.50006L12.3578 13.3212C12.2266 13.3868 12.161 13.4196 12.0922 13.4325C12.0313 13.4439 11.9687 13.4439 11.9078 13.4325C11.839 13.4196 11.7734 13.3868 11.6422 13.3212L2 8.50006Z" stroke="black" stroke-width="2" stroke-linecap="round" stroke-linejoin="round"/>
    </symbol>
    <symbol id="grid" viewBox="0 0 24 24" fill="none">
        <g width="24" height="24">
            <path d="M8.4 3H4.6C4.03995 3 3.75992 3 3.54601 3.10899C3.35785 3.20487 3.20487 3.35785 3.10899 3.54601C3 3.75992 3 4.03995 3 4.6V8.4C3 8.96005 3 9.24008 3.10899 9.45399C3.20487 9.64215 3.35785 9.79513 3.54601 9.89101C3.75992 10 4.03995 10 4.6 10H8.4C8.96005 10 9.24008 10 9.45399 9.89101C9.64215 9.79513 9.79513 9.64215 9.89101 9.45399C10 9.24008 10 8.96005 10 8.4V4.6C10 4.03995 10 3.75992 9.89101 3.54601C9.79513 3.35785 9.64215 3.20487 9.45399 3.10899C9.24008 3 8.96005 3 8.4 3Z" stroke="black" stroke-width="2" stroke-linecap="round" stroke-linejoin="round"/>
            <path d="M19.4 3H15.6C15.0399 3 14.7599 3 14.546 3.10899C14.3578 3.20487 14.2049 3.35785 14.109 3.54601C14 3.75992 14 4.03995 14 4.6V8.4C14 8.96005 14 9.24008 14.109 9.45399C14.2049 9.64215 14.3578 9.79513 14.546 9.89101C14.7599 10 15.0399 10 15.6 10H19.4C19.9601 10 20.2401 10 20.454 9.89101C20.6422 9.79513 20.7951 9.64215 20.891 9.45399C21 9.24008 21 8.96005 21 8.4V4.6C21 4.03995 21 3.75992 20.891 3.54601C20.7951 3.35785 20.6422 3.20487 20.454 3.10899C20.2401 3 19.9601 3 19.4 3Z" stroke="black" stroke-width="2" stroke-linecap="round" stroke-linejoin="round"/>
            <path d="M19.4 14H15.6C15.0399 14 14.7599 14 14.546 14.109C14.3578 14.2049 14.2049 14.3578 14.109 14.546C14 14.7599 14 15.0399 14 15.6V19.4C14 19.9601 14 20.2401 14.109 20.454C14.2049 20.6422 14.3578 20.7951 14.546 20.891C14.7599 21 15.0399 21 15.6 21H19.4C19.9601 21 20.2401 21 20.454 20.891C20.6422 20.7951 20.7951 20.6422 20.891 20.454C21 20.2401 21 19.9601 21 19.4V15.6C21 15.0399 21 14.7599 20.891 14.546C20.7951 14.3578 20.6422 14.2049 20.454 14.109C20.2401 14 19.9601 14 19.4 14Z" stroke="black" stroke-width="2" stroke-linecap="round" stroke-linejoin="round"/>
            <path d="M8.4 14H4.6C4.03995 14 3.75992 14 3.54601 14.109C3.35785 14.2049 3.20487 14.3578 3.10899 14.546C3 14.7599 3 15.0399 3 15.6V19.4C3 19.9601 3 20.2401 3.10899 20.454C3.20487 20.6422 3.35785 20.7951 3.54601 20.891C3.75992 21 4.03995 21 4.6 21H8.4C8.96005 21 9.24008 21 9.45399 20.891C9.64215 20.7951 9.79513 20.6422 9.89101 20.454C10 20.2401 10 19.9601 10 19.4V15.6C10 15.0399 10 14.7599 9.89101 14.546C9.79513 14.3578 9.64215 14.2049 9.45399 14.109C9.24008 14 8.96005 14 8.4 14Z" stroke="black" stroke-width="2" stroke-linecap="round" stroke-linejoin="round"/>
        </g>
    </symbol>
    <symbol id="header" viewBox="0 0 24 24" fill="none">
        <path width="24" height="24" d="M17.5 6.5L6.5 6.5M7.8 3H16.2C17.8802 3 18.7202 3 19.362 3.32698C19.9265 3.6146 20.3854 4.07354 20.673 4.63803C21 5.27976 21 6.11984 21 7.8V16.2C21 17.8802 21 18.7202 20.673 19.362C20.3854 19.9265 19.9265 20.3854 19.362 20.673C18.7202 21 17.8802 21 16.2 21H7.8C6.11984 21 5.27976 21 4.63803 20.673C4.07354 20.3854 3.6146 19.9265 3.32698 19.362C3 18.7202 3 17.8802 3 16.2V7.8C3 6.11984 3 5.27976 3.32698 4.63803C3.6146 4.07354 4.07354 3.6146 4.63803 3.32698C5.27976 3 6.11984 3 7.8 3Z" stroke="black" stroke-width="2" stroke-linecap="round" stroke-linejoin="round"/>
    </symbol>
    <symbol id="heading" viewBox="0 0 24 24" fill="none">
        <path width="24" height="24" d="M6 4V20M18 4V20M9.5 4V20M11.5 4H4M18 12H9.5M11.5 20H4M20 20H16M20 4H16" stroke="black" stroke-width="2" stroke-linecap="round" stroke-linejoin="round"/>
    </symbol>
    <symbol id="heart" viewBox="0 0 24 24" fill="none">
        <path width="24" height="24" fill-rule="evenodd" clip-rule="evenodd" d="M11.9932 5.13581C9.9938 2.7984 6.65975 2.16964 4.15469 4.31001C1.64964 6.45038 1.29697 10.029 3.2642 12.5604C4.89982 14.6651 9.84977 19.1041 11.4721 20.5408C11.6536 20.7016 11.7444 20.7819 11.8502 20.8135C11.9426 20.8411 12.0437 20.8411 12.1361 20.8135C12.2419 20.7819 12.3327 20.7016 12.5142 20.5408C14.1365 19.1041 19.0865 14.6651 20.7221 12.5604C22.6893 10.029 22.3797 6.42787 19.8316 4.31001C17.2835 2.19216 13.9925 2.7984 11.9932 5.13581Z" stroke="black" stroke-width="2" stroke-linecap="round" stroke-linejoin="round"/>
    </symbol>
    <symbol id="home" viewBox="0 0 22 22" fill="none">
        <path width="32" height="32" d="M9 21V13.6C9 13.0399 9 12.7599 9.109 12.546C9.20487 12.3578 9.35785 12.2049 9.54601 12.109C9.75993 12 10.04 12 10.6 12H13.4C13.9601 12 14.2401 12 14.454 12.109C14.6422 12.2049 14.7951 12.3578 14.891 12.546C15 12.7599 15 13.0399 15 13.6V21M2 9.5L11.04 2.72C11.3843 2.46181 11.5564 2.33271 11.7454 2.28294C11.9123 2.23902 12.0877 2.23902 12.2546 2.28295C12.4436 2.33271 12.6157 2.46181 12.96 2.72L22 9.5M4 8V17.8C4 18.9201 4 19.4802 4.21799 19.908C4.40974 20.2843 4.7157 20.5903 5.09202 20.782C5.51985 21 6.0799 21 7.2 21H16.8C17.9201 21 18.4802 21 18.908 20.782C19.2843 20.5903 19.5903 20.2843 19.782 19.908C20 19.4802 20 18.9201 20 17.8V8L13.92 3.44C13.2315 2.92361 12.8872 2.66542 12.5091 2.56589C12.1754 2.47804 11.8246 2.47804 11.4909 2.56589C11.1128 2.66542 10.7685 2.92361 10.08 3.44L4 8Z" stroke="black" stroke-width="2" stroke-linecap="round" stroke-linejoin="round"/>
    </symbol>
    <symbol id="heart-rounded" viewBox="0 0 24 24" fill="none">
        <path width="24" height="24" d="M16.1111 3C19.6333 3 22 6.3525 22 9.48C22 15.8138 12.1778 21 12 21C11.8222 21 2 15.8138 2 9.48C2 6.3525 4.36667 3 7.88889 3C9.91111 3 11.2333 4.02375 12 4.92375C12.7667 4.02375 14.0889 3 16.1111 3Z" stroke="black" stroke-width="2" stroke-linecap="round" stroke-linejoin="round"/>
    </symbol>
    <symbol id ="image" viewBox="0 0 22 22" fill="none">
        <path width="32" height="32" d="M16.2 21H6.93137C6.32555 21 6.02265 21 5.88238 20.8802C5.76068 20.7763 5.69609 20.6203 5.70865 20.4608C5.72312 20.2769 5.93731 20.0627 6.36569 19.6343L14.8686 11.1314C15.2646 10.7354 15.4627 10.5373 15.691 10.4632C15.8918 10.3979 16.1082 10.3979 16.309 10.4632C16.5373 10.5373 16.7354 10.7354 17.1314 11.1314L21 15V16.2M16.2 21C17.8802 21 18.7202 21 19.362 20.673C19.9265 20.3854 20.3854 19.9265 20.673 19.362C21 18.7202 21 17.8802 21 16.2M16.2 21H7.8C6.11984 21 5.27976 21 4.63803 20.673C4.07354 20.3854 3.6146 19.9265 3.32698 19.362C3 18.7202 3 17.8802 3 16.2V7.8C3 6.11984 3 5.27976 3.32698 4.63803C3.6146 4.07354 4.07354 3.6146 4.63803 3.32698C5.27976 3 6.11984 3 7.8 3H16.2C17.8802 3 18.7202 3 19.362 3.32698C19.9265 3.6146 20.3854 4.07354 20.673 4.63803C21 5.27976 21 6.11984 21 7.8V16.2M10.5 8.5C10.5 9.60457 9.60457 10.5 8.5 10.5C7.39543 10.5 6.5 9.60457 6.5 8.5C6.5 7.39543 7.39543 6.5 8.5 6.5C9.60457 6.5 10.5 7.39543 10.5 8.5Z" stroke="black" stroke-width="2" stroke-linecap="round" stroke-linejoin="round"/>
    </symbol>
    <symbol id="layout" viewBox="0 0 24 24" fill="none">
        <path width="24" height="24" d="M3 9H21M9 9L9 21M7.8 3H16.2C17.8802 3 18.7202 3 19.362 3.32698C19.9265 3.6146 20.3854 4.07354 20.673 4.63803C21 5.27976 21 6.11984 21 7.8V16.2C21 17.8802 21 18.7202 20.673 19.362C20.3854 19.9265 19.9265 20.3854 19.362 20.673C18.7202 21 17.8802 21 16.2 21H7.8C6.11984 21 5.27976 21 4.63803 20.673C4.07354 20.3854 3.6146 19.9265 3.32698 19.362C3 18.7202 3 17.8802 3 16.2V7.8C3 6.11984 3 5.27976 3.32698 4.63803C3.6146 4.07354 4.07354 3.6146 4.63803 3.32698C5.27976 3 6.11984 3 7.8 3Z" stroke="black" stroke-width="2" stroke-linecap="round" stroke-linejoin="round"/>
    </symbol>
    <svg id="layout_alt" viewBox="0 0 24 24" fill="none">
        <path width="24" height="24" d="M12 12L21 12M12 3L12 21M7.8 3H16.2C17.8802 3 18.7202 3 19.362 3.32698C19.9265 3.6146 20.3854 4.07354 20.673 4.63803C21 5.27976 21 6.11984 21 7.8V16.2C21 17.8802 21 18.7202 20.673 19.362C20.3854 19.9265 19.9265 20.3854 19.362 20.673C18.7202 21 17.8802 21 16.2 21H7.8C6.11984 21 5.27976 21 4.63803 20.673C4.07354 20.3854 3.6146 19.9265 3.32698 19.362C3 18.7202 3 17.8802 3 16.2V7.8C3 6.11984 3 5.27976 3.32698 4.63803C3.6146 4.07354 4.07354 3.6146 4.63803 3.32698C5.27976 3 6.11984 3 7.8 3Z" stroke="black" stroke-width="2" stroke-linecap="round" stroke-linejoin="round"/>
    </svg>
    <symbol id="link" viewBox="0 0 24 24" fill="none">
        <path width="24" height="24" d="M12.7076 18.3639L11.2933 19.7781C9.34072 21.7308 6.1749 21.7308 4.22228 19.7781C2.26966 17.8255 2.26966 14.6597 4.22228 12.7071L5.63649 11.2929M18.3644 12.7071L19.7786 11.2929C21.7312 9.34024 21.7312 6.17441 19.7786 4.22179C17.826 2.26917 14.6602 2.26917 12.7076 4.22179L11.2933 5.636M8.50045 15.4999L15.5005 8.49994" stroke="black" stroke-width="2" stroke-linecap="round" stroke-linejoin="round"/>
    </symbol>
    <symbol id="link-external" viewBox="0 0 24 24" fill="none">
        <path width="24" height="24" d="M21 9L21 3M21 3H15M21 3L13 11M10 5H7.8C6.11984 5 5.27976 5 4.63803 5.32698C4.07354 5.6146 3.6146 6.07354 3.32698 6.63803C3 7.27976 3 8.11984 3 9.8V16.2C3 17.8802 3 18.7202 3.32698 19.362C3.6146 19.9265 4.07354 20.3854 4.63803 20.673C5.27976 21 6.11984 21 7.8 21H14.2C15.8802 21 16.7202 21 17.362 20.673C17.9265 20.3854 18.3854 19.9265 18.673 19.362C19 18.7202 19 17.8802 19 16.2V14" stroke="black" stroke-width="2" stroke-linecap="round" stroke-linejoin="round"/>
    </symbol>
    <symbol id="list" viewBox="0 0 22 22" fill="none">
        <path width="32" height="32" d="M19 8L7 8M19 2L7 2M19 14L7 14M3 8C3 8.55228 2.55228 9 2 9C1.44772 9 1 8.55228 1 8C1 7.44772 1.44772 7 2 7C2.55228 7 3 7.44772 3 8ZM3 2C3 2.55228 2.55228 3 2 3C1.44772 3 1 2.55228 1 2C1 1.44772 1.44772 1 2 1C2.55228 1 3 1.44772 3 2ZM3 14C3 14.5523 2.55228 15 2 15C1.44772 15 1 14.5523 1 14C1 13.4477 1.44772 13 2 13C2.55228 13 3 13.4477 3 14Z" stroke="black" stroke-width="2" stroke-linecap="round" stroke-linejoin="round"/>
    </symbol>
    <symbol id="listing" viewBox="0 0 24 24" fill="none">
        <path width="24" height="24" d="M17.5 11H12.5M17.5 15H12.5M17.5 7H12.5M9 3L9 21M7.8 3H16.2C17.8802 3 18.7202 3 19.362 3.32698C19.9265 3.6146 20.3854 4.07354 20.673 4.63803C21 5.27976 21 6.11984 21 7.8V16.2C21 17.8802 21 18.7202 20.673 19.362C20.3854 19.9265 19.9265 20.3854 19.362 20.673C18.7202 21 17.8802 21 16.2 21H7.8C6.11984 21 5.27976 21 4.63803 20.673C4.07354 20.3854 3.6146 19.9265 3.32698 19.362C3 18.7202 3 17.8802 3 16.2V7.8C3 6.11984 3 5.27976 3.32698 4.63803C3.6146 4.07354 4.07354 3.6146 4.63803 3.32698C5.27976 3 6.11984 3 7.8 3Z" stroke="black" stroke-width="2" stroke-linecap="round" stroke-linejoin="round"/>
    </symbol>
    <symbol id="map" viewBox="0 0 24 24" fill="none">
        <path width="24" height="24" d="M8 3L16 21M3 17L12 12M7.8 21H16.2C17.8802 21 18.7202 21 19.362 20.673C19.9265 20.3854 20.3854 19.9265 20.673 19.362C21 18.7202 21 17.8802 21 16.2V7.8C21 6.11984 21 5.27976 20.673 4.63803C20.3854 4.07354 19.9265 3.6146 19.362 3.32698C18.7202 3 17.8802 3 16.2 3H7.8C6.11984 3 5.27976 3 4.63803 3.32698C4.07354 3.6146 3.6146 4.07354 3.32698 4.63803C3 5.27976 3 6.11984 3 7.8V16.2C3 17.8802 3 18.7202 3.32698 19.362C3.6146 19.9265 4.07354 20.3854 4.63803 20.673C5.27976 21 6.11984 21 7.8 21Z" stroke="black" stroke-width="2" stroke-linecap="round" stroke-linejoin="round"/>
    </symbol>
    <symbol id="message-text" viewBox="0 0 20 21" fill="none">
        <path width="20" height="21" d="M5 6.5H10M5 10H13M7.68375 16H14.2C15.8802 16 16.7202 16 17.362 15.673C17.9265 15.3854 18.3854 14.9265 18.673 14.362C19 13.7202 19 12.8802 19 11.2V5.8C19 4.11984 19 3.27976 18.673 2.63803C18.3854 2.07354 17.9265 1.6146 17.362 1.32698C16.7202 1 15.8802 1 14.2 1H5.8C4.11984 1 3.27976 1 2.63803 1.32698C2.07354 1.6146 1.6146 2.07354 1.32698 2.63803C1 3.27976 1 4.11984 1 5.8V18.3355C1 18.8684 1 19.1348 1.10923 19.2716C1.20422 19.3906 1.34827 19.4599 1.50054 19.4597C1.67563 19.4595 1.88367 19.2931 2.29976 18.9602L4.68521 17.0518C5.17252 16.662 5.41617 16.4671 5.68749 16.3285C5.9282 16.2055 6.18443 16.1156 6.44921 16.0613C6.74767 16 7.0597 16 7.68375 16Z" stroke="black" stroke-width="2" stroke-linecap="round" stroke-linejoin="round"/>
    </symbol>
    <symbol id="message-square" viewBox="0 0 24 24" fill="none">
        <path width="24" height="24" d="M3 7.8C3 6.11984 3 5.27976 3.32698 4.63803C3.6146 4.07354 4.07354 3.6146 4.63803 3.32698C5.27976 3 6.11984 3 7.8 3H16.2C17.8802 3 18.7202 3 19.362 3.32698C19.9265 3.6146 20.3854 4.07354 20.673 4.63803C21 5.27976 21 6.11984 21 7.8V13.2C21 14.8802 21 15.7202 20.673 16.362C20.3854 16.9265 19.9265 17.3854 19.362 17.673C18.7202 18 17.8802 18 16.2 18H9.68375C9.0597 18 8.74767 18 8.44921 18.0613C8.18443 18.1156 7.9282 18.2055 7.68749 18.3285C7.41617 18.4671 7.17252 18.662 6.68521 19.0518L4.29976 20.9602C3.88367 21.2931 3.67563 21.4595 3.50054 21.4597C3.34827 21.4599 3.20422 21.3906 3.10923 21.2716C3 21.1348 3 20.8684 3 20.3355V7.8Z" stroke="black" stroke-width="2" stroke-linecap="round" stroke-linejoin="round"/>
    </symbol>
    <symbol id="message-square-fill" viewBox="0 0 24 24" fill="black">
        <path width="24" height="24" d="M3 7.8C3 6.11984 3 5.27976 3.32698 4.63803C3.6146 4.07354 4.07354 3.6146 4.63803 3.32698C5.27976 3 6.11984 3 7.8 3H16.2C17.8802 3 18.7202 3 19.362 3.32698C19.9265 3.6146 20.3854 4.07354 20.673 4.63803C21 5.27976 21 6.11984 21 7.8V13.2C21 14.8802 21 15.7202 20.673 16.362C20.3854 16.9265 19.9265 17.3854 19.362 17.673C18.7202 18 17.8802 18 16.2 18H9.68375C9.0597 18 8.74767 18 8.44921 18.0613C8.18443 18.1156 7.9282 18.2055 7.68749 18.3285C7.41617 18.4671 7.17252 18.662 6.68521 19.0518L4.29976 20.9602C3.88367 21.2931 3.67563 21.4595 3.50054 21.4597C3.34827 21.4599 3.20422 21.3906 3.10923 21.2716C3 21.1348 3 20.8684 3 20.3355V7.8Z" stroke="black" stroke-width="2" stroke-linecap="round" stroke-linejoin="round"/>
    </symbol>
    <symbol id="music" viewBox="0 0 22 22" fill="none">
        <path width="32" height="32" d="M9 18V6.35537C9 5.87383 9 5.63306 9.0876 5.43778C9.16482 5.26565 9.28917 5.11887 9.44627 5.0144C9.62449 4.89588 9.86198 4.8563 10.337 4.77714L19.137 3.31047C19.7779 3.20364 20.0984 3.15023 20.3482 3.243C20.5674 3.32441 20.7511 3.48005 20.8674 3.68286C21 3.91398 21 4.23889 21 4.8887V16M9 18C9 19.6568 7.65685 21 6 21C4.34315 21 3 19.6568 3 18C3 16.3431 4.34315 15 6 15C7.65685 15 9 16.3431 9 18ZM21 16C21 17.6568 19.6569 19 18 19C16.3431 19 15 17.6568 15 16C15 14.3431 16.3431 13 18 13C19.6569 13 21 14.3431 21 16Z" stroke="black" stroke-width="2" stroke-linecap="round" stroke-linejoin="round"/>
    </symbol>
    <symbol id="rocket" viewBox="0 0 24 24" fill="none">
        <path width="24" height="24" d="M12.9996 10.9999L3.49964 20.4999M14.0181 3.53838C15.2361 4.34658 16.4068 5.29941 17.5008 6.3934C18.6042 7.49683 19.564 8.67831 20.3767 9.90766M9.2546 7.89605L6.37973 6.93776C6.04865 6.8274 5.68398 6.89763 5.41756 7.12306L2.56041 9.54065C1.97548 10.0356 2.14166 10.9775 2.86064 11.2424L5.56784 12.2398M11.6807 18.3524L12.6781 21.0596C12.943 21.7786 13.8849 21.9448 14.3798 21.3599L16.7974 18.5027C17.0228 18.2363 17.0931 17.8716 16.9827 17.5405L16.0244 14.6657M19.3482 2.27063L14.4418 3.08838C13.9119 3.17668 13.426 3.43709 13.0591 3.82932L6.446 10.8985C4.73185 12.7308 4.77953 15.5924 6.55378 17.3667C8.32803 19.1409 11.1896 19.1886 13.022 17.4744L20.0911 10.8614C20.4834 10.4944 20.7438 10.0085 20.8321 9.47869L21.6498 4.57222C21.8754 3.21858 20.7019 2.04503 19.3482 2.27063Z" stroke="black" stroke-width="2" stroke-linecap="round" stroke-linejoin="round"/>
    </symbol>
    <symbol id="rows" viewBox="0 0 24 24" fill="none">
        <path width="24" height="24" d="M3 9H21M3 15H21M7.8 3H16.2C17.8802 3 18.7202 3 19.362 3.32698C19.9265 3.6146 20.3854 4.07354 20.673 4.63803C21 5.27976 21 6.11984 21 7.8V16.2C21 17.8802 21 18.7202 20.673 19.362C20.3854 19.9265 19.9265 20.3854 19.362 20.673C18.7202 21 17.8802 21 16.2 21H7.8C6.11984 21 5.27976 21 4.63803 20.673C4.07354 20.3854 3.6146 19.9265 3.32698 19.362C3 18.7202 3 17.8802 3 16.2V7.8C3 6.11984 3 5.27976 3.32698 4.63803C3.6146 4.07354 4.07354 3.6146 4.63803 3.32698C5.27976 3 6.11984 3 7.8 3Z" stroke="black" stroke-width="2" stroke-linecap="round" stroke-linejoin="round"/>
    </symbol>
    <symbol id="search" viewBox="0 0 24 24" fill="none">
        <path d="M21 21L15.0001 15M17 10C17 13.866 13.866 17 10 17C6.13401 17 3 13.866 3 10C3 6.13401 6.13401 3 10 3C13.866 3 17 6.13401 17 10Z" stroke="black" stroke-width="2" stroke-linecap="round" stroke-linejoin="round"/>
    </symbol>
    <symbol id="share" viewBox="0 0 24 24" fill="none">
        <path width="24" height="24" d="M8.59 13.51L15.42 17.49M15.41 6.51L8.59 10.49M21 5C21 6.65685 19.6569 8 18 8C16.3431 8 15 6.65685 15 5C15 3.34315 16.3431 2 18 2C19.6569 2 21 3.34315 21 5ZM9 12C9 13.6569 7.65685 15 6 15C4.34315 15 3 13.6569 3 12C3 10.3431 4.34315 9 6 9C7.65685 9 9 10.3431 9 12ZM21 19C21 20.6569 19.6569 22 18 22C16.3431 22 15 20.6569 15 19C15 17.3431 16.3431 16 18 16C19.6569 16 21 17.3431 21 19Z" stroke="black" stroke-width="2" stroke-linecap="round" stroke-linejoin="round"/>
    </symbol>
    <symbol id="stand" viewBox="0 0 24 24" fill="none">
        <path width="24" height="24" d="M9 17L4 22M15 17L20 22M12 2V4M12 22V17M5.2 17H18.8C19.9201 17 20.4802 17 20.908 16.782C21.2843 16.5903 21.5903 16.2843 21.782 15.908C22 15.4802 22 14.9201 22 13.8V7.2C22 6.07989 22 5.51984 21.782 5.09202C21.5903 4.71569 21.2843 4.40973 20.908 4.21799C20.4802 4 19.9201 4 18.8 4H5.2C4.07989 4 3.51984 4 3.09202 4.21799C2.71569 4.40973 2.40973 4.71569 2.21799 5.09202C2 5.51984 2 6.07989 2 7.2V13.8C2 14.9201 2 15.4802 2.21799 15.908C2.40973 16.2843 2.71569 16.5903 3.09202 16.782C3.51984 17 4.0799 17 5.2 17Z" stroke="black" stroke-width="2" stroke-linecap="round" stroke-linejoin="round"/>
    </symbol>
    <symbol id="stars" viewBox="0 0 24 24" fill="none">
        <path width="24" height="24" d="M4.5 22V17M4.5 7V2M2 4.5H7M2 19.5H7M13 3L11.2658 7.50886C10.9838 8.24209 10.8428 8.60871 10.6235 8.91709C10.4292 9.1904 10.1904 9.42919 9.91709 9.62353C9.60871 9.8428 9.24209 9.98381 8.50886 10.2658L4 12L8.50886 13.7342C9.24209 14.0162 9.60871 14.1572 9.91709 14.3765C10.1904 14.5708 10.4292 14.8096 10.6235 15.0829C10.8428 15.3913 10.9838 15.7579 11.2658 16.4911L13 21L14.7342 16.4911C15.0162 15.7579 15.1572 15.3913 15.3765 15.0829C15.5708 14.8096 15.8096 14.5708 16.0829 14.3765C16.3913 14.1572 16.7579 14.0162 17.4911 13.7342L22 12L17.4911 10.2658C16.7579 9.98381 16.3913 9.8428 16.0829 9.62353C15.8096 9.42919 15.5708 9.1904 15.3765 8.91709C15.1572 8.60871 15.0162 8.24209 14.7342 7.50886L13 3Z" stroke="black" stroke-width="2" stroke-linecap="round" stroke-linejoin="round"/>
    </symbol>
    <symbol id="tag" viewBox="0 0 24 24" fill="none">
        <path width="24" height="24" d="M8 8H8.01M2 5.2L2 9.67451C2 10.1637 2 10.4083 2.05526 10.6385C2.10425 10.8425 2.18506 11.0376 2.29472 11.2166C2.4184 11.4184 2.59135 11.5914 2.93726 11.9373L10.6059 19.6059C11.7939 20.7939 12.388 21.388 13.0729 21.6105C13.6755 21.8063 14.3245 21.8063 14.927 21.6105C15.612 21.388 16.2061 20.7939 17.3941 19.6059L19.6059 17.3941C20.7939 16.2061 21.388 15.612 21.6105 14.927C21.8063 14.3245 21.8063 13.6755 21.6105 13.0729C21.388 12.388 20.7939 11.7939 19.6059 10.6059L11.9373 2.93726C11.5914 2.59135 11.4184 2.4184 11.2166 2.29472C11.0376 2.18506 10.8425 2.10425 10.6385 2.05526C10.4083 2 10.1637 2 9.67452 2L5.2 2C4.0799 2 3.51984 2 3.09202 2.21799C2.7157 2.40973 2.40973 2.71569 2.21799 3.09202C2 3.51984 2 4.07989 2 5.2ZM8.5 8C8.5 8.27614 8.27614 8.5 8 8.5C7.72386 8.5 7.5 8.27614 7.5 8C7.5 7.72386 7.72386 7.5 8 7.5C8.27614 7.5 8.5 7.72386 8.5 8Z" stroke="black" stroke-width="2" stroke-linecap="round" stroke-linejoin="round"/>
    </symbol>
    <symbol id="text-input" viewBox="0 0 24 24" fill="none">
        <path width="24" height="24" d="M13 7H5.2C4.0799 7 3.51984 7 3.09202 7.21799C2.71569 7.40973 2.40973 7.71569 2.21799 8.09202C2 8.51984 2 9.0799 2 10.2V13.8C2 14.9201 2 15.4802 2.21799 15.908C2.40973 16.2843 2.71569 16.5903 3.09202 16.782C3.51984 17 4.07989 17 5.2 17H13M17 7H18.8C19.9201 7 20.4802 7 20.908 7.21799C21.2843 7.40973 21.5903 7.71569 21.782 8.09202C22 8.51984 22 9.0799 22 10.2V13.8C22 14.9201 22 15.4802 21.782 15.908C21.5903 16.2843 21.2843 16.5903 20.908 16.782C20.4802 17 19.9201 17 18.8 17H17M17 21L17 3M19.5 3.00001L14.5 3M19.5 21L14.5 21" stroke="black" stroke-width="2" stroke-linecap="round" stroke-linejoin="round"/>
    </symbol>
    <symbol id="ticket" viewBox="0 0 22 22" fill="none">
        <path width="32" height="32" d="M10 8V7M10 12.5V11.5M10 17V16M5.2 4H18.8C19.9201 4 20.4802 4 20.908 4.21799C21.2843 4.40973 21.5903 4.71569 21.782 5.09202C22 5.51984 22 6.0799 22 7.2V8.5C20.067 8.5 18.5 10.067 18.5 12C18.5 13.933 20.067 15.5 22 15.5V16.8C22 17.9201 22 18.4802 21.782 18.908C21.5903 19.2843 21.2843 19.5903 20.908 19.782C20.4802 20 19.9201 20 18.8 20H5.2C4.0799 20 3.51984 20 3.09202 19.782C2.71569 19.5903 2.40973 19.2843 2.21799 18.908C2 18.4802 2 17.9201 2 16.8V15.5C3.933 15.5 5.5 13.933 5.5 12C5.5 10.067 3.933 8.5 2 8.5V7.2C2 6.0799 2 5.51984 2.21799 5.09202C2.40973 4.71569 2.71569 4.40973 3.09202 4.21799C3.51984 4 4.0799 4 5.2 4Z" stroke="black" stroke-width="2" stroke-linecap="round" stroke-linejoin="round"/>
    </symbol>
    <symbol id="two-columns" viewBox="0 0 24 24" fill="none">
        <path width="24" height="24" d="M12 3V21M7.8 3H16.2C17.8802 3 18.7202 3 19.362 3.32698C19.9265 3.6146 20.3854 4.07354 20.673 4.63803C21 5.27976 21 6.11984 21 7.8V16.2C21 17.8802 21 18.7202 20.673 19.362C20.3854 19.9265 19.9265 20.3854 19.362 20.673C18.7202 21 17.8802 21 16.2 21H7.8C6.11984 21 5.27976 21 4.63803 20.673C4.07354 20.3854 3.6146 19.9265 3.32698 19.362C3 18.7202 3 17.8802 3 16.2V7.8C3 6.11984 3 5.27976 3.32698 4.63803C3.6146 4.07354 4.07354 3.6146 4.63803 3.32698C5.27976 3 6.11984 3 7.8 3Z" stroke="black" stroke-width="2" stroke-linecap="round" stroke-linejoin="round"/>
    </symbol>
    <symbol id="three-columns" viewBox="0 0 24 24" fill="none">
        <path width="24" height="24" d="M9 3V21M15 3V21M7.8 3H16.2C17.8802 3 18.7202 3 19.362 3.32698C19.9265 3.6146 20.3854 4.07354 20.673 4.63803C21 5.27976 21 6.11984 21 7.8V16.2C21 17.8802 21 18.7202 20.673 19.362C20.3854 19.9265 19.9265 20.3854 19.362 20.673C18.7202 21 17.8802 21 16.2 21H7.8C6.11984 21 5.27976 21 4.63803 20.673C4.07354 20.3854 3.6146 19.9265 3.32698 19.362C3 18.7202 3 17.8802 3 16.2V7.8C3 6.11984 3 5.27976 3.32698 4.63803C3.6146 4.07354 4.07354 3.6146 4.63803 3.32698C5.27976 3 6.11984 3 7.8 3Z" stroke="black" stroke-width="2" stroke-linecap="round" stroke-linejoin="round"/>
    </symbol>
    <symbol id="type" viewBox="0 0 18 18" fill="none">
        <path width="18" height="18" d="M1 4C1 3.06812 1 2.60218 1.15224 2.23463C1.35523 1.74458 1.74458 1.35523 2.23463 1.15224C2.60218 1 3.06812 1 4 1H14C14.9319 1 15.3978 1 15.7654 1.15224C16.2554 1.35523 16.6448 1.74458 16.8478 2.23463C17 2.60218 17 3.06812 17 4M5 17H13M7.25 1V17M10.75 1V17" stroke="black" stroke-width="2" stroke-linecap="round" stroke-linejoin="round"/>
    </symbol>
    <symbol id="user" viewBox="0 0 24 24" fill="none">
        <path width="24" height="24" d="M20 21C20 19.6044 20 18.9067 19.8278 18.3389C19.44 17.0605 18.4395 16.06 17.1611 15.6722C16.5933 15.5 15.8956 15.5 14.5 15.5H9.5C8.10444 15.5 7.40665 15.5 6.83886 15.6722C5.56045 16.06 4.56004 17.0605 4.17224 18.3389C4 18.9067 4 19.6044 4 21M16.5 7.5C16.5 9.98528 14.4853 12 12 12C9.51472 12 7.5 9.98528 7.5 7.5C7.5 5.01472 9.51472 3 12 3C14.4853 3 16.5 5.01472 16.5 7.5Z" stroke="black" stroke-width="2" stroke-linecap="round" stroke-linejoin="round"/>
    </symbol>
    <symbol id="user_circle" viewBox="0 0 24 24" fill="none">
        <path width="24" height="24" d="M5.3163 19.4384C5.92462 18.0052 7.34492 17 9 17H15C16.6551 17 18.0754 18.0052 18.6837 19.4384M16 9.5C16 11.7091 14.2091 13.5 12 13.5C9.79086 13.5 8 11.7091 8 9.5C8 7.29086 9.79086 5.5 12 5.5C14.2091 5.5 16 7.29086 16 9.5ZM22 12C22 17.5228 17.5228 22 12 22C6.47715 22 2 17.5228 2 12C2 6.47715 6.47715 2 12 2C17.5228 2 22 6.47715 22 12Z" stroke="black" stroke-width="2" stroke-linecap="round" stroke-linejoin="round"/>
    </symbol>
    <symbol id="users" viewBox="0 0 24 24" fill="none">
        <path width="24" height="24" d="M22 21V19C22 17.1362 20.7252 15.5701 19 15.126M15.5 3.29076C16.9659 3.88415 18 5.32131 18 7C18 8.67869 16.9659 10.1159 15.5 10.7092M17 21C17 19.1362 17 18.2044 16.6955 17.4693C16.2895 16.4892 15.5108 15.7105 14.5307 15.3045C13.7956 15 12.8638 15 11 15H8C6.13623 15 5.20435 15 4.46927 15.3045C3.48915 15.7105 2.71046 16.4892 2.30448 17.4693C2 18.2044 2 19.1362 2 21M13.5 7C13.5 9.20914 11.7091 11 9.5 11C7.29086 11 5.5 9.20914 5.5 7C5.5 4.79086 7.29086 3 9.5 3C11.7091 3 13.5 4.79086 13.5 7Z" stroke="black" stroke-width="2" stroke-linecap="round" stroke-linejoin="round"/>
    </symbol>
    <symbol id="video" viewBox="0 0 22 22" fill="none">
        <path width="32" height="32" d="M2 12H22M2 7H7M17 7H22M2 17H7M17 17H22M7 22V2M17 22V2M6.8 22H17.2C18.8802 22 19.7202 22 20.362 21.673C20.9265 21.3854 21.3854 20.9265 21.673 20.362C22 19.7202 22 18.8802 22 17.2V6.8C22 5.11984 22 4.27976 21.673 3.63803C21.3854 3.07354 20.9265 2.6146 20.362 2.32698C19.7202 2 18.8802 2 17.2 2H6.8C5.11984 2 4.27976 2 3.63803 2.32698C3.07354 2.6146 2.6146 3.07354 2.32698 3.63803C2 4.27976 2 5.11984 2 6.8V17.2C2 18.8802 2 19.7202 2.32698 20.362C2.6146 20.9265 3.07354 21.3854 3.63803 21.673C4.27976 22 5.11984 22 6.8 22Z" stroke="black" stroke-width="2" stroke-linecap="round" stroke-linejoin="round"/>
    </symbol>
    <symbol id="shopping-bag" viewBox="0 0 24 24" fill="none">
        <path d="M16.0004 9V6C16.0004 3.79086 14.2095 2 12.0004 2C9.79123 2 8.00037 3.79086 8.00037 6V9M3.59237 10.352L2.99237 16.752C2.82178 18.5717 2.73648 19.4815 3.03842 20.1843C3.30367 20.8016 3.76849 21.3121 4.35839 21.6338C5.0299 22 5.94374 22 7.77142 22H16.2293C18.057 22 18.9708 22 19.6423 21.6338C20.2322 21.3121 20.6971 20.8016 20.9623 20.1843C21.2643 19.4815 21.179 18.5717 21.0084 16.752L20.4084 10.352C20.2643 8.81535 20.1923 8.04704 19.8467 7.46616C19.5424 6.95458 19.0927 6.54511 18.555 6.28984C17.9444 6 17.1727 6 15.6293 6L8.37142 6C6.82806 6 6.05638 6 5.44579 6.28984C4.90803 6.54511 4.45838 6.95458 4.15403 7.46616C3.80846 8.04704 3.73643 8.81534 3.59237 10.352Z" stroke="black" stroke-width="2" stroke-linecap="round" stroke-linejoin="round"/>
    </symbol>
    <symbol id="shopping-cart" viewBox="0 0 24 24" fill="none">
        <path d="M2 2H3.30616C3.55218 2 3.67519 2 3.77418 2.04524C3.86142 2.08511 3.93535 2.14922 3.98715 2.22995C4.04593 2.32154 4.06333 2.44332 4.09812 2.68686L4.57143 6M4.57143 6L5.62332 13.7314C5.75681 14.7125 5.82355 15.2031 6.0581 15.5723C6.26478 15.8977 6.56108 16.1564 6.91135 16.3174C7.30886 16.5 7.80394 16.5 8.79411 16.5H17.352C18.2945 16.5 18.7658 16.5 19.151 16.3304C19.4905 16.1809 19.7818 15.9398 19.9923 15.6342C20.2309 15.2876 20.3191 14.8247 20.4955 13.8988L21.8191 6.94969C21.8812 6.62381 21.9122 6.46087 21.8672 6.3335C21.8278 6.22177 21.7499 6.12768 21.6475 6.06802C21.5308 6 21.365 6 21.0332 6H4.57143ZM10 21C10 21.5523 9.55228 22 9 22C8.44772 22 8 21.5523 8 21C8 20.4477 8.44772 20 9 20C9.55228 20 10 20.4477 10 21ZM18 21C18 21.5523 17.5523 22 17 22C16.4477 22 16 21.5523 16 21C16 20.4477 16.4477 20 17 20C17.5523 20 18 20.4477 18 21Z" stroke="black" stroke-width="2" stroke-linecap="round" stroke-linejoin="round"/>
    </symbol>
    <symbol id="product-tag" viewBox="0 0 24 24" fill="none">
        <path d="M21 11L13.4059 3.40589C12.887 2.88703 12.6276 2.6276 12.3249 2.44208C12.0564 2.27759 11.7638 2.15638 11.4577 2.08289C11.1124 2 10.7455 2 10.0118 2L6 2M3 8.7L3 10.6745C3 11.1637 3 11.4083 3.05526 11.6385C3.10425 11.8425 3.18506 12.0376 3.29472 12.2166C3.4184 12.4184 3.59136 12.5914 3.93726 12.9373L11.7373 20.7373C12.5293 21.5293 12.9253 21.9253 13.382 22.0737C13.7837 22.2042 14.2163 22.2042 14.618 22.0737C15.0747 21.9253 15.4707 21.5293 16.2627 20.7373L18.7373 18.2627C19.5293 17.4707 19.9253 17.0747 20.0737 16.618C20.2042 16.2163 20.2042 15.7837 20.0737 15.382C19.9253 14.9253 19.5293 14.5293 18.7373 13.7373L11.4373 6.43726C11.0914 6.09136 10.9184 5.9184 10.7166 5.79472C10.5376 5.68506 10.3425 5.60425 10.1385 5.55526C9.90829 5.5 9.6637 5.5 9.17452 5.5H6.2C5.0799 5.5 4.51984 5.5 4.09202 5.71799C3.7157 5.90973 3.40973 6.21569 3.21799 6.59202C3 7.01984 3 7.57989 3 8.7Z" stroke="black" stroke-width="2" stroke-linecap="round" stroke-linejoin="round"/>
    </symbol>
    <symbol id="place" viewBox="0 0 24 24" fill="none">
        <path d="M5 14.2864C3.14864 15.1031 2 16.2412 2 17.5C2 19.9853 6.47715 22 12 22C17.5228 22 22 19.9853 22 17.5C22 16.2412 20.8514 15.1031 19 14.2864M18 8C18 12.0637 13.5 14 12 17C10.5 14 6 12.0637 6 8C6 4.68629 8.68629 2 12 2C15.3137 2 18 4.68629 18 8ZM13 8C13 8.55228 12.5523 9 12 9C11.4477 9 11 8.55228 11 8C11 7.44772 11.4477 7 12 7C12.5523 7 13 7.44772 13 8Z" stroke="black" stroke-width="2" stroke-linecap="round" stroke-linejoin="round"/>
    </symbol>
    <symbol id="settings" viewBox="0 0 24 24" fill="none">
        <path d="M3 8L15 8M15 8C15 9.65686 16.3431 11 18 11C19.6569 11 21 9.65685 21 8C21 6.34315 19.6569 5 18 5C16.3431 5 15 6.34315 15 8ZM9 16L21 16M9 16C9 17.6569 7.65685 19 6 19C4.34315 19 3 17.6569 3 16C3 14.3431 4.34315 13 6 13C7.65685 13 9 14.3431 9 16Z" stroke="black" stroke-width="2" stroke-linecap="round" stroke-linejoin="round"/>
    </symbol>
    <symbol id="settings-alt" viewBox="0 0 24 24" fill="none">
        <path d="M12 15C13.6569 15 15 13.6569 15 12C15 10.3431 13.6569 9 12 9C10.3431 9 9 10.3431 9 12C9 13.6569 10.3431 15 12 15Z" stroke="black" stroke-width="2" stroke-linecap="round" stroke-linejoin="round"/>
        <path d="M18.7273 14.7273C18.6063 15.0015 18.5702 15.3056 18.6236 15.6005C18.6771 15.8954 18.8177 16.1676 19.0273 16.3818L19.0818 16.4364C19.2509 16.6052 19.385 16.8057 19.4765 17.0265C19.568 17.2472 19.6151 17.4838 19.6151 17.7227C19.6151 17.9617 19.568 18.1983 19.4765 18.419C19.385 18.6397 19.2509 18.8402 19.0818 19.0091C18.913 19.1781 18.7124 19.3122 18.4917 19.4037C18.271 19.4952 18.0344 19.5423 17.7955 19.5423C17.5565 19.5423 17.3199 19.4952 17.0992 19.4037C16.8785 19.3122 16.678 19.1781 16.5091 19.0091L16.4545 18.9545C16.2403 18.745 15.9682 18.6044 15.6733 18.5509C15.3784 18.4974 15.0742 18.5335 14.8 18.6545C14.5311 18.7698 14.3018 18.9611 14.1403 19.205C13.9788 19.4489 13.8921 19.7347 13.8909 20.0273V20.1818C13.8909 20.664 13.6994 21.1265 13.3584 21.4675C13.0174 21.8084 12.5549 22 12.0727 22C11.5905 22 11.1281 21.8084 10.7871 21.4675C10.4461 21.1265 10.2545 20.664 10.2545 20.1818V20.1C10.2475 19.7991 10.1501 19.5073 9.97501 19.2625C9.79991 19.0176 9.55521 18.8312 9.27273 18.7273C8.99853 18.6063 8.69437 18.5702 8.39947 18.6236C8.10456 18.6771 7.83244 18.8177 7.61818 19.0273L7.56364 19.0818C7.39478 19.2509 7.19425 19.385 6.97353 19.4765C6.7528 19.568 6.51621 19.6151 6.27727 19.6151C6.03834 19.6151 5.80174 19.568 5.58102 19.4765C5.36029 19.385 5.15977 19.2509 4.99091 19.0818C4.82186 18.913 4.68775 18.7124 4.59626 18.4917C4.50476 18.271 4.45766 18.0344 4.45766 17.7955C4.45766 17.5565 4.50476 17.3199 4.59626 17.0992C4.68775 16.8785 4.82186 16.678 4.99091 16.5091L5.04545 16.4545C5.25503 16.2403 5.39562 15.9682 5.4491 15.6733C5.50257 15.3784 5.46647 15.0742 5.34545 14.8C5.23022 14.5311 5.03887 14.3018 4.79497 14.1403C4.55107 13.9788 4.26526 13.8921 3.97273 13.8909H3.81818C3.33597 13.8909 2.87351 13.6994 2.53253 13.3584C2.19156 13.0174 2 12.5549 2 12.0727C2 11.5905 2.19156 11.1281 2.53253 10.7871C2.87351 10.4461 3.33597 10.2545 3.81818 10.2545H3.9C4.2009 10.2475 4.49273 10.1501 4.73754 9.97501C4.98236 9.79991 5.16883 9.55521 5.27273 9.27273C5.39374 8.99853 5.42984 8.69437 5.37637 8.39947C5.3229 8.10456 5.18231 7.83244 4.97273 7.61818L4.91818 7.56364C4.74913 7.39478 4.61503 7.19425 4.52353 6.97353C4.43203 6.7528 4.38493 6.51621 4.38493 6.27727C4.38493 6.03834 4.43203 5.80174 4.52353 5.58102C4.61503 5.36029 4.74913 5.15977 4.91818 4.99091C5.08704 4.82186 5.28757 4.68775 5.50829 4.59626C5.72901 4.50476 5.96561 4.45766 6.20455 4.45766C6.44348 4.45766 6.68008 4.50476 6.9008 4.59626C7.12152 4.68775 7.32205 4.82186 7.49091 4.99091L7.54545 5.04545C7.75971 5.25503 8.03183 5.39562 8.32674 5.4491C8.62164 5.50257 8.9258 5.46647 9.2 5.34545H9.27273C9.54161 5.23022 9.77093 5.03887 9.93245 4.79497C10.094 4.55107 10.1807 4.26526 10.1818 3.97273V3.81818C10.1818 3.33597 10.3734 2.87351 10.7144 2.53253C11.0553 2.19156 11.5178 2 12 2C12.4822 2 12.9447 2.19156 13.2856 2.53253C13.6266 2.87351 13.8182 3.33597 13.8182 3.81818V3.9C13.8193 4.19253 13.906 4.47834 14.0676 4.72224C14.2291 4.96614 14.4584 5.15749 14.7273 5.27273C15.0015 5.39374 15.3056 5.42984 15.6005 5.37637C15.8954 5.3229 16.1676 5.18231 16.3818 4.97273L16.4364 4.91818C16.6052 4.74913 16.8057 4.61503 17.0265 4.52353C17.2472 4.43203 17.4838 4.38493 17.7227 4.38493C17.9617 4.38493 18.1983 4.43203 18.419 4.52353C18.6397 4.61503 18.8402 4.74913 19.0091 4.91818C19.1781 5.08704 19.3122 5.28757 19.4037 5.50829C19.4952 5.72901 19.5423 5.96561 19.5423 6.20455C19.5423 6.44348 19.4952 6.68008 19.4037 6.9008C19.3122 7.12152 19.1781 7.32205 19.0091 7.49091L18.9545 7.54545C18.745 7.75971 18.6044 8.03183 18.5509 8.32674C18.4974 8.62164 18.5335 8.9258 18.6545 9.2V9.27273C18.7698 9.54161 18.9611 9.77093 19.205 9.93245C19.4489 10.094 19.7347 10.1807 20.0273 10.1818H20.1818C20.664 10.1818 21.1265 10.3734 21.4675 10.7144C21.8084 11.0553 22 11.5178 22 12C22 12.4822 21.8084 12.9447 21.4675 13.2856C21.1265 13.6266 20.664 13.8182 20.1818 13.8182H20.1C19.8075 13.8193 19.5217 13.906 19.2778 14.0676C19.0339 14.2291 18.8425 14.4584 18.7273 14.7273Z" stroke="black" stroke-width="2" stroke-linecap="round" stroke-linejoin="round"/>
    </symbol>
    <symbol id="globe" viewBox="0 0 24 24" fill="none"
        xmlns="http://www.w3.org/2000/svg">
        <path d="M12 2C14.5013 4.73835 15.9228 8.29203 16 12C15.9228 15.708 14.5013 19.2616 12 22M12 2C9.49872 4.73835 8.07725 8.29203 8 12C8.07725 15.708 9.49872 19.2616 12 22M12 2C6.47715 2 2 6.47715 2 12C2 17.5228 6.47715 22 12 22M12 2C17.5228 2 22 6.47715 22 12C22 17.5228 17.5228 22 12 22M2.50002 9H21.5M2.5 15H21.5" stroke="black" stroke-width="2" stroke-linecap="round" stroke-linejoin="round"/>
    </symbol>
    <symbol id="globe-alt" viewBox="0 0 24 24" fill="none"
        xmlns="http://www.w3.org/2000/svg">
        <path d="M2 12H22M2 12C2 17.5228 6.47715 22 12 22M2 12C2 6.47715 6.47715 2 12 2M22 12C22 17.5228 17.5228 22 12 22M22 12C22 6.47715 17.5228 2 12 2M12 2C14.5013 4.73835 15.9228 8.29203 16 12C15.9228 15.708 14.5013 19.2616 12 22M12 2C9.49872 4.73835 8.07725 8.29203 8 12C8.07725 15.708 9.49872 19.2616 12 22" stroke="black" stroke-width="2" stroke-linecap="round" stroke-linejoin="round"/>
    </symbol>
    <symbol id="asterisk" viewBox="0 0 24 24" fill="none"
        xmlns="http://www.w3.org/2000/svg">
        <path d="M12 4V20M18 6L6 18M20 12H4M18 18L6 6" stroke="black" stroke-width="2" stroke-linecap="round" stroke-linejoin="round"/>
    </symbol>
</svg>
